<!DOCTYPE svg PUBLIC "-//W3C//DTD SVG 1.1//EN" "http://www.w3.org/Graphics/SVG/1.1/DTD/svg11.dtd">
<!-- Uploaded to: SVG Repo, www.svgrepo.com, Transformed by: SVG Repo Mixer Tools -->
<svg width="184px" height="184px" viewBox="-6.4 -6.4 76.80 76.80" xmlns="http://www.w3.org/2000/svg" fill="" stroke="">
<g id="SVGRepo_bgCarrier" stroke-width="0"/>
<g id="SVGRepo_tracerCarrier" stroke-linecap="round" stroke-linejoin="round"/>
<g id="SVGRepo_iconCarrier"> <defs> <style>.cls-1{fill:#474582;}.cls-2{fill:#e0e9ee;}.cls-3{fill:#748a95;}.cls-4{fill:#f0f4f7;}.cls-5{fill:#474582;}.cls-6{fill:#d0e1e8;}</style> </defs> <g id="Bus"> <path class="cls-1" d="M41.37,27.36H10.5A2.5,2.5,0,0,0,8,29.86v1.58l4.29,4.34L8,39.8v7.55a2.5,2.5,0,0,0,2.5,2.5h43a2.5,2.5,0,0,0,2.5-2.5V43.44l-4.49-6.16,4.07-5.84a6.32,6.32,0,0,0-5.16-4l-4.53,1Z" id="rect69842-9"/> <path class="cls-2" d="M8,31.44V39.8H42.37l4.7,3.64H56V33.69a6.25,6.25,0,0,0-.42-2.25Z" id="path71159-5"/> <path class="cls-3" d="M23,49.85A2.88,2.88,0,1,1,20.12,47,2.88,2.88,0,0,1,23,49.85Z" id="path81032-8"/> <path class="cls-3" d="M17.24,49.85A2.89,2.89,0,1,1,14.36,47,2.88,2.88,0,0,1,17.24,49.85Z" id="path81137-7"/> <path class="cls-3" d="M51.12,49.85A2.89,2.89,0,1,1,48.23,47,2.88,2.88,0,0,1,51.12,49.85Z" id="path81221-1"/> <path class="cls-4" d="M30.13,26a1.39,1.39,0,1,0,0,2.77H32v4.65a1.39,1.39,0,0,0,2.78,0V28.74a1.39,1.39,0,1,0,0-2.77Z" id="rect90159-7"/> <path class="cls-4" d="M19.33,26a1.39,1.39,0,1,0,0,2.78H20.6a1.39,1.39,0,0,0,0-2.78Z" id="path91599-2"/> <path class="cls-5" d="M53.16,43.44v3.91a2.5,2.5,0,0,1-2.5,2.5H53.5a2.5,2.5,0,0,0,2.5-2.5V43.44Zm2.42-12a6.32,6.32,0,0,0-5.16-4L49,27.73a6.3,6.3,0,0,1,3.78,3.71Z" id="path142548"/> <path class="cls-4" d="M41.37,27.36v6.75a1.51,1.51,0,1,0,3,0V32.32a1.51,1.51,0,1,1,3,0v4.14a1.51,1.51,0,1,0,3,0v-9a6.3,6.3,0,0,0-.75-.05Z" id="rect57533-5-2"/> <path class="cls-6" d="M52.74,31.44a6.25,6.25,0,0,1,.42,2.25v9.75H56V33.69a6.25,6.25,0,0,0-.42-2.25Z" id="path142550"/> <circle cx="13.45" cy="20.05" r="1.25"/> <circle cx="51.39" cy="23.41" r="1.25"/> <circle cx="21.8" cy="43.44" r="1.25"/> <circle cx="27.09" cy="43.44" r="1.25"/> <circle cx="16.5" cy="43.44" r="1.25"/> <path d="M49.67,26.36H36.94A2.38,2.38,0,0,0,34.78,25H30.13A2.38,2.38,0,0,0,28,26.36H22.76A2.38,2.38,0,0,0,20.6,25H19.33a2.38,2.38,0,0,0-2.16,1.39H10.5A3.5,3.5,0,0,0,7,29.86V47.35a3.5,3.5,0,0,0,3.5,3.5h.12a3.86,3.86,0,0,0,6.62,1.58,3.86,3.86,0,0,0,6.62-1.58H44.5a3.86,3.86,0,0,0,7.47,0H53.5a3.5,3.5,0,0,0,3.5-3.5V33.69A7.34,7.34,0,0,0,49.67,26.36ZM17.86,38.79l1.52-6.35h6.54L24.4,38.79ZM9,38.79V32.44h8.33L15.8,38.79Zm19-6.35h3v1a2.38,2.38,0,0,0,1.78,2.3v3.1H26.45Zm7.81-2.91a2.4,2.4,0,0,0,1.14-1.17h3.45v2.08H35.78Zm13.64,6.93a.51.51,0,0,1-.51.51.5.5,0,0,1-.51-.51V32.32a2.51,2.51,0,1,0-5,0v1.79a.51.51,0,0,1-.51.51.51.51,0,0,1-.51-.51V28.36h7.05ZM34.78,35.33a2.4,2.4,0,0,0,1-1.94v-1h4.59v1.67a2.51,2.51,0,0,0,1,2v2.69H34.78Zm6.59,5.46v8.06H34.78V40.79Zm2-4.22a2.52,2.52,0,0,0,2-2.46V32.32a.51.51,0,1,1,1,0v4.14a2.51,2.51,0,1,0,5,0v-4h3.43A5.7,5.7,0,0,1,55,33.69v8.75H47.41l-4-3.14Zm10.51-6.13H51.42V28.66A5.3,5.3,0,0,1,53.88,30.44ZM30.13,27h4.65a.39.39,0,1,1,0,.77,1,1,0,0,0-1,1v2.69h0v1.95a.39.39,0,0,1-.78,0V28.74a1,1,0,0,0-1-1H30.13a.39.39,0,0,1,0-.77Zm-10.8,0H20.6a.39.39,0,0,1,0,.78H19.33a.39.39,0,1,1,0-.78ZM10.5,28.36h6.67a2.4,2.4,0,0,0,2.16,1.39H20.6a2.4,2.4,0,0,0,2.16-1.39H28a2.39,2.39,0,0,0,2.16,1.38H31v.7H9v-.58A1.5,1.5,0,0,1,10.5,28.36ZM9,47.35V40.79H32.78v8.06H23.86a3.86,3.86,0,0,0-6.62-1.58,3.86,3.86,0,0,0-6.62,1.58H10.5A1.5,1.5,0,0,1,9,47.35Zm5.36,4.38a1.88,1.88,0,1,1,1.88-1.88A1.89,1.89,0,0,1,14.36,51.73Zm5.76,0A1.88,1.88,0,1,1,22,49.85,1.88,1.88,0,0,1,20.12,51.73Zm28.11,0a1.88,1.88,0,1,1,1.89-1.88A1.88,1.88,0,0,1,48.23,51.73Zm5.27-2.88H52a3.86,3.86,0,0,0-7.47,0H43.37v-7l3.09,2.39a1,1,0,0,0,.61.21H55v2.91A1.5,1.5,0,0,1,53.5,48.85Z"/> <path d="M39.47,46.52a1,1,0,0,0,1-1V44a1,1,0,1,0-2,0v1.54A1,1,0,0,0,39.47,46.52Z"/> <path d="M28.41,14.6l-.31-.18a1,1,0,0,0-1,1.73l.31.18a1,1,0,0,0,.5.14,1,1,0,0,0,.5-1.87Z"/> <path d="M23.87,12l-.31-.18a1,1,0,0,0-1,1.73l.31.18a1,1,0,0,0,1-1.73Z"/> <path d="M22.87,14.42l-.31.18a1,1,0,1,0,1,1.73l.31-.18a1,1,0,0,0,.36-1.36A1,1,0,0,0,22.87,14.42Z"/> <path d="M28.78,12.17a1,1,0,0,0-1.37-.37L27.1,12a1,1,0,0,0,.5,1.86,1,1,0,0,0,.5-.13l.31-.18A1,1,0,0,0,28.78,12.17Z"/> <path d="M25.49,15.51a1,1,0,0,0-1,1v.35a1,1,0,0,0,2,0v-.35A1,1,0,0,0,25.49,15.51Z"/> <path d="M26.49,11.27a1,1,0,0,0-2,0v.35a1,1,0,1,0,2,0Z"/> <path d="M44.61,21.36l-.3-.18a1,1,0,1,0-1,1.73l.3.18A1,1,0,0,0,45,22.72,1,1,0,0,0,44.61,21.36Z"/> <path d="M40.07,18.73l-.3-.17a1,1,0,1,0-1,1.73l.31.17a.93.93,0,0,0,.5.14,1,1,0,0,0,.5-1.87Z"/> <path d="M39.07,21.18l-.31.18a1,1,0,0,0,.51,1.86,1,1,0,0,0,.5-.13l.3-.18a1,1,0,1,0-1-1.73Z"/> <path d="M45,18.92a1,1,0,0,0-1.37-.36l-.3.17a1,1,0,0,0,1,1.74l.3-.18A1,1,0,0,0,45,18.92Z"/> <path d="M41.69,22.27a1,1,0,0,0-1,1v.35a1,1,0,1,0,2,0v-.35A1,1,0,0,0,41.69,22.27Z"/> <path d="M42.69,18a1,1,0,1,0-2,0v.36a1,1,0,0,0,2,0Z"/> </g> </g>
</svg>